<svg xmlns="http://www.w3.org/2000/svg" width="32" height="32" viewBox="0 0 32 32">
<rect width="100%" height="100%" fill="#082819"/>
<g transform="translate(0.5340000000000007, 6)"><path d="M6.798 17.468Q5.016 17.468 3.652 16.830Q2.288 16.192 1.518 15.004Q0.748 13.816 0.748 12.144L0.748 11.528L3.608 11.528L3.608 12.144Q3.608 13.530 4.466 14.223Q5.324 14.916 6.798 14.916Q8.294 14.916 9.031 14.322Q9.768 13.728 9.768 12.804Q9.768 12.166 9.405 11.770Q9.042 11.374 8.349 11.121Q7.656 10.868 6.666 10.648L6.160 10.538Q4.576 10.186 3.443 9.647Q2.310 9.108 1.705 8.228Q1.100 7.348 1.100 5.940Q1.100 4.532 1.771 3.531Q2.442 2.530 3.663 1.991Q4.884 1.452 6.534 1.452Q8.184 1.452 9.471 2.013Q10.758 2.574 11.495 3.685Q12.232 4.796 12.232 6.468L12.232 7.128L9.372 7.128L9.372 6.468Q9.372 5.588 9.031 5.049Q8.690 4.510 8.052 4.257Q7.414 4.004 6.534 4.004Q5.214 4.004 4.587 4.499Q3.960 4.994 3.960 5.852Q3.960 6.424 4.257 6.820Q4.554 7.216 5.148 7.480Q5.742 7.744 6.666 7.942L7.172 8.052Q8.822 8.404 10.043 8.954Q11.264 9.504 11.946 10.406Q12.628 11.308 12.628 12.716Q12.628 14.124 11.913 15.191Q11.198 16.258 9.889 16.863Q8.580 17.468 6.798 17.468 M24.288 17.160L14.344 17.160L14.344 1.760L17.248 1.760L17.248 14.520L24.288 14.520" fill="#E8EDE9"/><path d="M27.676 17.468Q26.774 17.468 26.169 16.885Q25.564 16.302 25.564 15.378Q25.564 14.454 26.169 13.871Q26.774 13.288 27.676 13.288Q28.556 13.288 29.150 13.871Q29.744 14.454 29.744 15.378Q29.744 16.302 29.150 16.885Q28.556 17.468 27.676 17.468" fill="#C8362A"/></g>
</svg>
