<svg xmlns="http://www.w3.org/2000/svg" width="801.2499999999999" height="150" viewBox="0 0 801.2499999999999 150">

<g transform="translate(25, 25)"><path d="M33.050 79.550L33.050 79.550Q28.950 79.550 26 78.575Q23.050 77.600 21.175 76.650Q19.300 75.700 18.400 75.700L18.400 75.700Q17.400 75.700 16.750 76.300Q16.100 76.900 15.525 77.675Q14.950 78.450 14.300 79.050Q13.650 79.650 12.700 79.650L12.700 79.650Q11.650 79.650 10.975 79.025Q10.300 78.400 10.050 76.950L10.050 76.950L6.600 60.650Q6.400 59.550 6.875 58.750Q7.350 57.950 8.450 57.600L8.450 57.600Q9.650 57.200 10.550 57.650Q11.450 58.100 12.100 59.400L12.100 59.400Q14.950 65 18.175 68.300Q21.400 71.600 24.900 73Q28.400 74.400 32.050 74.400L32.050 74.400Q37.150 74.400 40.100 71.750Q43.050 69.100 43.050 64.650L43.050 64.650Q43.100 61.750 41.750 59.425Q40.400 57.100 36.650 54.900Q32.900 52.700 25.550 50.300L25.550 50.300Q17.950 47.850 13.375 44.625Q8.800 41.400 6.750 37.100Q4.700 32.800 4.700 27.100L4.700 27.100Q4.700 21.050 7.575 16.450Q10.450 11.850 15.675 9.275Q20.900 6.700 27.900 6.700L27.900 6.700Q32.400 6.700 35.350 7.625Q38.300 8.550 40.200 9.500Q42.100 10.450 43.350 10.450L43.350 10.450Q44.450 10.450 45.050 9.475Q45.650 8.500 46.350 7.525Q47.050 6.550 48.450 6.550L48.450 6.550Q49.550 6.550 50.275 7.250Q51 7.950 51.550 9.850L51.550 9.850L56.250 26.250Q56.650 27.550 56.175 28.575Q55.700 29.600 54.550 29.950L54.550 29.950Q53.400 30.350 52.475 29.875Q51.550 29.400 50.950 28.250L50.950 28.250Q47.850 22.050 44.325 18.475Q40.800 14.900 37.050 13.350Q33.300 11.800 29.450 11.800L29.450 11.800Q24.350 11.800 21.325 14.725Q18.300 17.650 18.300 22.350L18.300 22.350Q18.300 25.200 19.625 27.650Q20.950 30.100 24.650 32.425Q28.350 34.750 35.350 37.350L35.350 37.350Q43.100 40.100 47.675 43.300Q52.250 46.500 54.225 50.525Q56.200 54.550 56.200 59.750L56.200 59.750Q56.200 65.200 53.450 69.700Q50.700 74.200 45.550 76.875Q40.400 79.550 33.050 79.550Z M109.300 43.250L109.300 43.250Q109.300 46.100 107.325 48.050Q105.350 50 102.050 50L102.050 50Q98.800 50 97.125 48.225Q95.450 46.450 95.450 43.550L95.450 43.550L95.450 41.950Q95.450 38.550 93.350 36.475Q91.250 34.400 87.700 34.400L87.700 34.400Q84.550 34.400 82.050 36.300Q79.550 38.200 78.100 41.750Q76.650 45.300 76.650 50.250L76.650 50.250Q76.650 56.500 78.775 60.825Q80.900 65.150 84.650 67.375Q88.400 69.600 93.200 69.600L93.200 69.600Q97.450 69.600 100.625 67.850Q103.800 66.100 105.650 62.950L105.650 62.950Q106.500 61.950 107.050 61.600Q107.600 61.250 108.150 61.250L108.150 61.250Q108.950 61.250 109.300 61.975Q109.650 62.700 109.600 63.650L109.600 63.650Q109.400 67.900 106.650 71.450Q103.900 75 99.275 77.125Q94.650 79.250 88.650 79.250L88.650 79.250Q81.400 79.250 75.825 76.275Q70.250 73.300 67.075 67.950Q63.900 62.600 63.900 55.350L63.900 55.350Q63.900 48 67.075 42.150Q70.250 36.300 76 32.900Q81.750 29.500 89.550 29.500L89.550 29.500Q95.650 29.500 100.075 31.375Q104.500 33.250 106.900 36.375Q109.300 39.500 109.300 43.250Z M142.200 29.500L142.200 29.500Q149.950 29.500 155.800 32.650Q161.650 35.800 164.925 41.425Q168.200 47.050 168.200 54.500L168.200 54.500Q168.200 61.550 164.825 67.150Q161.450 72.750 155.500 76Q149.550 79.250 141.700 79.250L141.700 79.250Q134 79.250 128.175 76.050Q122.350 72.850 119.050 67.225Q115.750 61.600 115.750 54.250L115.750 54.250Q115.750 47.100 119.125 41.525Q122.500 35.950 128.450 32.725Q134.400 29.500 142.200 29.500ZM145.750 74L145.750 74Q149.150 73.500 151.225 70.875Q153.300 68.250 153.875 63.650Q154.450 59.050 153.250 52.600L153.250 52.600Q152.100 46.150 149.900 41.975Q147.700 37.800 144.700 35.950Q141.700 34.100 138.200 34.700L138.200 34.700Q134.750 35.250 132.675 37.875Q130.600 40.500 130.075 45.075Q129.550 49.650 130.700 56.150L130.700 56.150Q131.850 62.550 134.050 66.725Q136.250 70.900 139.250 72.750Q142.250 74.600 145.750 74Z M194.800 51.250L193.050 51.500Q193.050 44.250 195.100 39.350Q197.150 34.450 200.500 31.975Q203.850 29.500 207.700 29.500L207.700 29.500Q212.450 29.500 215.050 32.200Q217.650 34.900 217.650 39.950L217.650 39.950Q217.650 44.450 215.800 46.650Q213.950 48.850 211 48.850L211 48.850Q208 48.850 206.450 47.250Q204.900 45.650 204.900 42.800L204.900 42.800L204.900 41Q204.850 39.400 204.150 38.625Q203.450 37.850 201.850 37.850L201.850 37.850Q200.100 37.850 198.475 39.300Q196.850 40.750 195.825 43.700Q194.800 46.650 194.800 51.250L194.800 51.250ZM194 32.950L194 32.950L194.800 44.300L194.800 69.950Q194.800 71.400 195.375 72.075Q195.950 72.750 197.450 73L197.450 73L201.750 73.650Q202.900 73.850 203.475 74.400Q204.050 74.950 204.050 75.900L204.050 75.900Q204.050 76.900 203.325 77.450Q202.600 78 201.250 78L201.250 78L177.900 78Q176.500 78 175.850 77.450Q175.200 76.900 175.200 75.950L175.200 75.950Q175.200 75.200 175.650 74.675Q176.100 74.150 177.050 73.800L177.050 73.800L179 73.300Q179.900 73 180.325 72.275Q180.750 71.550 180.750 70L180.750 70L180.750 41.450Q180.750 40.150 180.375 39.600Q180 39.050 179.150 38.900L179.150 38.900L176.500 38.700Q175.600 38.500 175.200 38.050Q174.800 37.600 174.800 36.900L174.800 36.900Q174.800 36.050 175.300 35.550Q175.800 35.050 177.100 34.550L177.100 34.550L186.200 31.250Q188.650 30.300 189.800 30.025Q190.950 29.750 191.600 29.750L191.600 29.750Q192.700 29.750 193.250 30.475Q193.800 31.200 194 32.950Z M241 32.900L241 32.900L241 38.500L241.600 39.700L241.600 93.300Q241.600 94.850 242.025 95.575Q242.450 96.300 243.350 96.550L243.350 96.550L246 97.100Q247 97.400 247.450 97.925Q247.900 98.450 247.900 99.250L247.900 99.250Q247.900 100.200 247.225 100.750Q246.550 101.300 245.100 101.300L245.100 101.300L224.650 101.300Q223.250 101.300 222.600 100.750Q221.950 100.200 221.950 99.250L221.950 99.250Q221.950 98.500 222.400 97.975Q222.850 97.450 223.800 97.100L223.800 97.100L225.750 96.600Q226.650 96.300 227.075 95.575Q227.500 94.850 227.500 93.300L227.500 93.300L227.500 41.300Q227.500 40.050 227.125 39.500Q226.750 38.950 225.900 38.800L225.900 38.800L223.250 38.600Q222.350 38.400 221.950 37.950Q221.550 37.500 221.550 36.800L221.550 36.800Q221.550 35.950 222.025 35.500Q222.500 35.050 223.850 34.500L223.850 34.500L232.600 31.050Q234.400 30.300 235.575 30.025Q236.750 29.750 237.650 29.750L237.650 29.750Q239.350 29.750 240.175 30.625Q241 31.500 241 32.900ZM238.700 45.450L238.700 45.450L236.500 42.600Q240.450 36.400 245.600 32.950Q250.750 29.500 257.050 29.500L257.050 29.500Q262.950 29.500 267.600 32.500Q272.250 35.500 274.925 40.825Q277.600 46.150 277.600 53.100L277.600 53.100Q277.600 61.050 274.425 66.925Q271.250 72.800 265.800 76.025Q260.350 79.250 253.600 79.250L253.600 79.250Q247.650 79.250 243.050 76.450Q238.450 73.650 235.450 68.350L235.450 68.350L238.900 65.450Q241.350 69.550 244.425 71.550Q247.500 73.550 251.050 73.550L251.050 73.550Q254.500 73.550 257.175 71.550Q259.850 69.550 261.400 65.325Q262.950 61.100 262.950 54.600L262.950 54.600Q262.950 48.500 261.450 44.500Q259.950 40.500 257.325 38.525Q254.700 36.550 251.350 36.550L251.350 36.550Q247.750 36.550 244.575 38.725Q241.400 40.900 238.700 45.450Z M304.200 32.900L304.200 32.900L304.200 70Q304.200 71.550 304.625 72.275Q305.050 73 305.950 73.300L305.950 73.300L307.850 73.800Q308.800 74.100 309.250 74.625Q309.700 75.150 309.700 75.950L309.700 75.950Q309.700 76.900 309.050 77.450Q308.400 78 306.950 78L306.950 78L287.250 78Q285.850 78 285.200 77.450Q284.550 76.900 284.550 75.950L284.550 75.950Q284.550 75.200 285 74.675Q285.450 74.150 286.400 73.800L286.400 73.800L288.350 73.300Q289.250 72.950 289.675 72.250Q290.100 71.550 290.100 70L290.100 70L290.100 41.350Q290.100 40.050 289.725 39.500Q289.350 38.950 288.500 38.800L288.500 38.800L285.850 38.600Q284.950 38.400 284.550 37.950Q284.150 37.500 284.150 36.800L284.150 36.800Q284.150 35.950 284.625 35.450Q285.100 34.950 286.450 34.450L286.450 34.450L295.750 31.050Q297.700 30.350 298.875 30.050Q300.050 29.750 300.850 29.750L300.850 29.750Q302.550 29.750 303.375 30.625Q304.200 31.500 304.200 32.900ZM296.050 22.100L296.050 22.100Q292.050 22.100 289.625 20.025Q287.200 17.950 287.200 14.600L287.200 14.600Q287.200 11.250 289.625 9.225Q292.050 7.200 296.050 7.200L296.050 7.200Q300.100 7.200 302.525 9.225Q304.950 11.250 304.950 14.600L304.950 14.600Q304.950 17.950 302.525 20.025Q300.100 22.100 296.050 22.100Z M352 70.800L352 70.800L352 68.350L351.550 68.150L351.550 41.350Q351.550 40.100 351.175 39.525Q350.800 38.950 349.950 38.800L349.950 38.800L347.300 38.600Q346.400 38.400 346 37.950Q345.600 37.500 345.600 36.800L345.600 36.800Q345.600 36 346.075 35.475Q346.550 34.950 347.900 34.500L347.900 34.500L357.200 31.100Q359.100 30.400 360.275 30.075Q361.450 29.750 362.450 29.750L362.450 29.750Q364 29.750 364.825 30.625Q365.650 31.500 365.650 32.950L365.650 32.950L365.650 70Q365.650 71.550 366.075 72.275Q366.500 73 367.400 73.300L367.400 73.300L369.300 73.800Q370.250 74.100 370.700 74.625Q371.150 75.150 371.150 75.950L371.150 75.950Q371.150 76.900 370.500 77.450Q369.850 78 368.400 78L368.400 78L358.350 78Q355.650 78 353.825 75.975Q352 73.950 352 70.800ZM320.050 64.100L320.050 64.100L320.050 41.350Q320.050 40.100 319.650 39.525Q319.250 38.950 318.400 38.800L318.400 38.800L315.750 38.600Q314.850 38.400 314.450 37.950Q314.050 37.500 314.050 36.800L314.050 36.800Q314.050 36 314.550 35.475Q315.050 34.950 316.350 34.500L316.350 34.500L325.700 31.100Q327.650 30.350 328.800 30.050Q329.950 29.750 330.800 29.750L330.800 29.750Q332.450 29.750 333.275 30.625Q334.100 31.500 334.100 32.950L334.100 32.950L334.100 62.050Q334.100 66.450 336.200 68.625Q338.300 70.800 341.900 70.800L341.900 70.800Q344.100 70.800 346.600 69.725Q349.100 68.650 351.750 66.400L351.750 66.400L353.750 64.650L356.050 67L354.100 68.750Q347.800 74.550 343.100 76.900Q338.400 79.250 334.250 79.250L334.250 79.250Q327.850 79.250 323.950 75.125Q320.050 71 320.050 64.100Z M399.600 74.700L399.600 74.700Q403.050 74.700 404.925 72.975Q406.800 71.250 406.800 68.650L406.800 68.650Q406.800 67 406.075 65.650Q405.350 64.300 403.275 63.200Q401.200 62.100 397.250 61.150L397.250 61.150Q389.550 59.600 385.325 57.200Q381.100 54.800 379.475 51.625Q377.850 48.450 377.850 44.650L377.850 44.650Q377.850 37.700 382.775 33.600Q387.700 29.500 397.000 29.500L397.000 29.500Q400.350 29.500 402.475 30.050Q404.600 30.600 405.950 31.175Q407.300 31.750 408.350 31.750L408.350 31.750Q409.450 31.750 410.025 31.175Q410.600 30.600 411.175 30.050Q411.750 29.500 412.800 29.500L412.800 29.500Q413.550 29.500 414.150 29.975Q414.750 30.450 415.150 31.800L415.150 31.800L418.450 41.850Q419.050 43.600 418.825 44.700Q418.600 45.800 417.450 46.250L417.450 46.250Q416.300 46.700 415.475 46.275Q414.650 45.850 413.850 44.700L413.850 44.700Q411.650 40.750 409.075 38.425Q406.500 36.100 403.675 35.075Q400.850 34.050 397.800 34.050L397.800 34.050Q393.550 34.050 391.400 35.775Q389.250 37.500 389.250 40.450L389.250 40.450Q389.250 42.200 390.150 43.600Q391.050 45 393.525 46.175Q396.000 47.350 400.600 48.450L400.600 48.450Q407.150 49.850 410.950 52.075Q414.750 54.300 416.425 57.425Q418.100 60.550 418.100 64.750L418.100 64.750Q418.100 69.050 415.875 72.325Q413.650 75.600 409.675 77.425Q405.700 79.250 400.500 79.250L400.500 79.250Q397.200 79.250 395.225 78.600Q393.250 77.950 391.975 77.325Q390.700 76.700 389.500 76.700L389.500 76.700Q388.400 76.700 387.675 77.325Q386.950 77.950 386.300 78.600Q385.650 79.250 384.700 79.250L384.700 79.250Q383.950 79.250 383.425 78.700Q382.900 78.150 382.650 76.850L382.650 76.850L380.700 67.300Q380.350 65.300 380.575 64.325Q380.800 63.350 381.850 62.950L381.850 62.950Q382.950 62.500 383.800 63.025Q384.650 63.550 385.500 64.950L385.500 64.950Q388.600 70.200 392.225 72.450Q395.850 74.700 399.600 74.700Z  M477.150 12.850L477.150 12.850L474.300 13.500Q473.100 13.850 472.450 14.550Q471.800 15.250 471.800 16.350L471.800 16.350L471.800 69.450Q471.800 71.350 472.900 72.175Q474.000 73 476.250 73L476.250 73L484.550 73Q487.400 73 489.400 72.225Q491.400 71.450 493.000 69.500Q494.600 67.550 496.250 63.950L496.250 63.950L499.250 57.050Q499.850 55.800 500.725 55.375Q501.600 54.950 502.750 55.250L502.750 55.250Q503.950 55.550 504.450 56.375Q504.950 57.200 504.550 58.600L504.550 58.600L500.050 76.200Q499.500 78.050 498.675 78.950Q497.850 79.850 496.250 79.850L496.250 79.850Q495.200 79.850 494.175 79.400Q493.150 78.950 491.925 78.475Q490.700 78 488.850 78L488.850 78L451.900 78Q450.350 78 449.625 77.375Q448.900 76.750 448.900 75.700L448.900 75.700Q448.900 73.800 451.000 73.150L451.000 73.150L453.850 72.500Q455.050 72.150 455.700 71.450Q456.350 70.750 456.350 69.650L456.350 69.650L456.350 16.350Q456.350 15.250 455.700 14.550Q455.050 13.850 453.850 13.500L453.850 13.500L451.000 12.850Q448.900 12.200 448.900 10.300L448.900 10.300Q448.900 9.200 449.625 8.600Q450.350 8 451.900 8L451.900 8L476.250 8Q477.800 8 478.525 8.600Q479.250 9.200 479.250 10.300L479.250 10.300Q479.250 12.200 477.150 12.850Z M556.150 48.450L556.150 48.450Q556.150 51.100 554.650 52.525Q553.150 53.950 550.250 53.950L550.250 53.950L519.050 53.950L519.050 50.150L539.500 50.150Q542.050 50.150 542.050 47.850L542.050 47.850Q542.050 41.250 539.650 37.825Q537.250 34.400 533.200 34.400L533.200 34.400Q530.100 34.400 527.700 36.300Q525.300 38.200 523.950 41.725Q522.600 45.250 522.600 50.250L522.600 50.250Q522.600 59.900 527.125 64.750Q531.650 69.600 539.200 69.600L539.200 69.600Q543.600 69.600 546.925 67.850Q550.250 66.100 552.100 62.850L552.100 62.850Q553 61.850 553.525 61.500Q554.050 61.150 554.600 61.150L554.600 61.150Q555.400 61.150 555.750 61.875Q556.100 62.600 556.100 63.600L556.100 63.600Q555.900 67.800 553.100 71.375Q550.300 74.950 545.550 77.100Q540.800 79.250 534.650 79.250L534.650 79.250Q527.400 79.250 521.800 76.275Q516.200 73.300 513.025 67.925Q509.850 62.550 509.850 55.350L509.850 55.350Q509.850 47.800 512.875 41.950Q515.900 36.100 521.550 32.800Q527.200 29.500 535.050 29.500L535.050 29.500Q541.750 29.500 546.475 31.925Q551.200 34.350 553.675 38.625Q556.150 42.900 556.150 48.450Z M593.400 71.650L593.400 71.650L593.400 70.600L592.450 70.400L592.450 40.550Q592.450 37.050 590.675 35.125Q588.900 33.200 585.650 33.200L585.650 33.200Q582.700 33.200 581.100 34.450Q579.500 35.700 579.500 37.550L579.500 37.550L579.500 41.950Q579.500 44.950 577.500 46.575Q575.500 48.200 571.850 48.200L571.850 48.200Q568.750 48.200 567.150 46.725Q565.550 45.250 565.550 42.700L565.550 42.700Q565.550 39.550 568.150 36.525Q570.750 33.500 575.800 31.525Q580.850 29.550 588.250 29.550L588.250 29.550Q597.450 29.550 601.925 33.275Q606.400 37 606.400 43.350L606.400 43.350L606.400 69.350Q606.400 70.750 606.975 71.450Q607.550 72.150 608.600 72.150L608.600 72.150Q609.700 72.150 610.250 71.625Q610.800 71.100 611.200 70.550L611.200 70.550Q611.450 70.200 611.750 69.975Q612.050 69.750 612.500 69.750L612.500 69.750Q613.100 69.750 613.400 70.200Q613.700 70.650 613.700 71.400L613.700 71.400Q613.700 73.100 612.525 74.900Q611.350 76.700 609.025 77.975Q606.700 79.250 603.200 79.250L603.200 79.250Q598.750 79.250 596.075 77.225Q593.400 75.200 593.400 71.650ZM563.450 67.550L563.450 67.550Q563.450 61.300 569.025 57.450Q574.600 53.600 584.600 53.600L584.600 53.600Q587.850 53.600 590.475 54.150Q593.100 54.700 595 55.650L595 55.650L593.900 58.850Q592.200 58.050 590.425 57.600Q588.650 57.150 586.600 57.150L586.600 57.150Q582.450 57.150 580.125 59.275Q577.800 61.400 577.800 65.150L577.800 65.150Q577.800 68.900 579.775 70.900Q581.750 72.900 584.900 72.900L584.900 72.900Q587.600 72.900 590.075 71.675Q592.550 70.450 594.250 68.250L594.250 68.250L595.350 71.100Q592.600 75 587.975 77.125Q583.350 79.250 578.150 79.250L578.150 79.250Q571.600 79.250 567.525 76Q563.450 72.750 563.450 67.550Z M654.700 71.950L654.700 69.650L654.250 69.400L654.250 15.250Q654.250 14 653.875 13.450Q653.500 12.900 652.600 12.750L652.600 12.750L650.000 12.550Q649.100 12.300 648.700 11.850Q648.300 11.400 648.300 10.700L648.300 10.700Q648.300 9.900 648.775 9.400Q649.250 8.900 650.600 8.400L650.600 8.400L659.900 5Q661.800 4.300 662.950 3.975Q664.100 3.650 665.150 3.650L665.150 3.650Q666.700 3.650 667.500 4.525Q668.300 5.400 668.300 6.850L668.300 6.850L668.300 70Q668.300 71.550 668.750 72.275Q669.200 73 670.100 73.300L670.100 73.300L672.000 73.800Q672.950 74.100 673.400 74.625Q673.850 75.150 673.850 75.950L673.850 75.950Q673.850 76.900 673.175 77.450Q672.500 78 671.100 78L671.100 78L660.750 78Q658.150 78 656.425 76.325Q654.700 74.650 654.700 71.950L654.700 71.950ZM618.250 55.650L618.250 55.650Q618.250 47.650 621.425 41.775Q624.600 35.900 630.050 32.700Q635.500 29.500 642.250 29.500L642.250 29.500Q648.200 29.500 652.800 32.275Q657.400 35.050 660.400 40.400L660.400 40.400L656.950 43.250Q654.500 39.150 651.425 37.150Q648.350 35.150 644.800 35.150L644.800 35.150Q641.400 35.150 638.700 37.175Q636.000 39.200 634.450 43.375Q632.900 47.550 632.900 54.100L632.900 54.100Q632.900 60.200 634.400 64.200Q635.900 68.200 638.525 70.175Q641.150 72.150 644.500 72.150L644.500 72.150Q648.150 72.150 651.300 69.975Q654.450 67.800 657.100 63.300L657.100 63.300L659.350 66.150Q655.400 72.300 650.225 75.775Q645.050 79.250 638.800 79.250L638.800 79.250Q632.900 79.250 628.250 76.225Q623.600 73.200 620.925 67.875Q618.250 62.550 618.250 55.650Z M701.850 74.700L701.850 74.700Q705.300 74.700 707.175 72.975Q709.050 71.250 709.050 68.650L709.050 68.650Q709.050 67 708.325 65.650Q707.600 64.300 705.525 63.200Q703.450 62.100 699.500 61.150L699.500 61.150Q691.800 59.600 687.575 57.200Q683.350 54.800 681.725 51.625Q680.100 48.450 680.100 44.650L680.100 44.650Q680.100 37.700 685.025 33.600Q689.950 29.500 699.250 29.500L699.250 29.500Q702.600 29.500 704.725 30.050Q706.850 30.600 708.200 31.175Q709.550 31.750 710.600 31.750L710.600 31.750Q711.700 31.750 712.275 31.175Q712.850 30.600 713.425 30.050Q714 29.500 715.050 29.500L715.050 29.500Q715.800 29.500 716.400 29.975Q717 30.450 717.400 31.800L717.400 31.800L720.700 41.850Q721.300 43.600 721.075 44.700Q720.850 45.800 719.700 46.250L719.700 46.250Q718.550 46.700 717.725 46.275Q716.900 45.850 716.100 44.700L716.100 44.700Q713.900 40.750 711.325 38.425Q708.750 36.100 705.925 35.075Q703.100 34.050 700.050 34.050L700.050 34.050Q695.800 34.050 693.650 35.775Q691.500 37.500 691.500 40.450L691.500 40.450Q691.500 42.200 692.400 43.600Q693.300 45 695.775 46.175Q698.250 47.350 702.850 48.450L702.850 48.450Q709.400 49.850 713.200 52.075Q717 54.300 718.675 57.425Q720.350 60.550 720.350 64.750L720.350 64.750Q720.350 69.050 718.125 72.325Q715.900 75.600 711.925 77.425Q707.950 79.250 702.750 79.250L702.750 79.250Q699.450 79.250 697.475 78.600Q695.500 77.950 694.225 77.325Q692.950 76.700 691.750 76.700L691.750 76.700Q690.650 76.700 689.925 77.325Q689.200 77.950 688.550 78.600Q687.900 79.250 686.950 79.250L686.950 79.250Q686.200 79.250 685.675 78.700Q685.150 78.150 684.900 76.850L684.900 76.850L682.950 67.300Q682.600 65.300 682.825 64.325Q683.050 63.350 684.100 62.950L684.100 62.950Q685.200 62.500 686.050 63.025Q686.900 63.550 687.750 64.950L687.750 64.950Q690.850 70.200 694.475 72.450Q698.100 74.700 701.850 74.700Z" fill="#E8EDE9"/><path d="M738.200 79.100L738.200 79.100Q735.750 79.100 733.725 77.850Q731.700 76.600 730.525 74.525Q729.350 72.450 729.350 70.050L729.350 70.050Q729.350 67.550 730.525 65.500Q731.700 63.450 733.725 62.225Q735.750 61 738.200 61L738.200 61Q740.750 61 742.750 62.225Q744.750 63.450 745.925 65.500Q747.100 67.550 747.100 70.050L747.100 70.050Q747.100 72.450 745.925 74.525Q744.750 76.600 742.750 77.850Q740.750 79.100 738.200 79.100Z" fill="#C8362A"/></g>
</svg>
