<svg xmlns="http://www.w3.org/2000/svg" width="696.8" height="696.8" viewBox="0 0 696.8 696.8">
<rect width="100%" height="100%" fill="#082819"/>
<g transform="translate(52, 213.2)"><g transform="translate(0, 0)"><path d="M40.170 103.220Q29.640 103.220 21.580 99.450Q13.520 95.680 8.970 88.660Q4.420 81.640 4.420 71.760L4.420 68.120L21.320 68.120L21.320 71.760Q21.320 79.950 26.390 84.045Q31.460 88.140 40.170 88.140Q49.010 88.140 53.365 84.630Q57.720 81.120 57.720 75.660Q57.720 71.890 55.575 69.550Q53.430 67.210 49.335 65.715Q45.240 64.220 39.390 62.920L36.400 62.270Q27.040 60.190 20.345 57.005Q13.650 53.820 10.075 48.620Q6.500 43.420 6.500 35.100Q6.500 26.780 10.465 20.865Q14.430 14.950 21.645 11.765Q28.860 8.580 38.610 8.580Q48.360 8.580 55.965 11.895Q63.570 15.210 67.925 21.775Q72.280 28.340 72.280 38.220L72.280 42.120L55.380 42.120L55.380 38.220Q55.380 33.020 53.365 29.835Q51.350 26.650 47.580 25.155Q43.810 23.660 38.610 23.660Q30.810 23.660 27.105 26.585Q23.400 29.510 23.400 34.580Q23.400 37.960 25.155 40.300Q26.910 42.640 30.420 44.200Q33.930 45.760 39.390 46.930L42.380 47.580Q52.130 49.660 59.345 52.910Q66.560 56.160 70.590 61.490Q74.620 66.820 74.620 75.140Q74.620 83.460 70.395 89.765Q66.170 96.070 58.435 99.645Q50.700 103.220 40.170 103.220" fill="#E8EDE9"/></g><g transform="translate(76.44, 0)"><path d="M43.160 103.220Q26.260 103.220 16.380 93.795Q6.500 84.370 6.500 66.820L6.500 44.980Q6.500 27.430 16.380 18.005Q26.260 8.580 43.160 8.580Q59.930 8.580 69.095 17.745Q78.260 26.910 78.260 42.900L78.260 43.680L61.360 43.680L61.360 42.380Q61.360 34.320 56.875 29.120Q52.390 23.920 43.160 23.920Q34.060 23.920 28.860 29.510Q23.660 35.100 23.660 44.720L23.660 67.080Q23.660 76.570 28.860 82.225Q34.060 87.880 43.160 87.880Q52.390 87.880 56.875 82.615Q61.360 77.350 61.360 69.420L61.360 67.080L78.260 67.080L78.260 68.900Q78.260 84.890 69.095 94.055Q59.930 103.220 43.160 103.220" fill="#E8EDE9"/></g><g transform="translate(157.82, 0)"><path d="M43.940 103.220Q26.780 103.220 16.640 93.795Q6.500 84.370 6.500 66.820L6.500 44.980Q6.500 27.430 16.640 18.005Q26.780 8.580 43.940 8.580Q61.100 8.580 71.240 18.005Q81.380 27.430 81.380 44.980L81.380 66.820Q81.380 84.370 71.240 93.795Q61.100 103.220 43.940 103.220M43.940 87.880Q53.560 87.880 58.890 82.290Q64.220 76.700 64.220 67.340L64.220 44.460Q64.220 35.100 58.890 29.510Q53.560 23.920 43.940 23.920Q34.450 23.920 29.055 29.510Q23.660 35.100 23.660 44.460L23.660 67.340Q23.660 76.700 29.055 82.290Q34.450 87.880 43.940 87.880" fill="#E8EDE9"/></g><g transform="translate(243.36, 0)"><path d="M25.740 101.400L8.580 101.400L8.580 10.400L48.100 10.400Q56.680 10.400 63.050 13.390Q69.420 16.380 72.930 21.840Q76.440 27.300 76.440 34.710L76.440 36.270Q76.440 44.460 72.540 49.530Q68.640 54.600 62.920 56.940L62.920 59.280Q68.120 59.540 70.980 62.855Q73.840 66.170 73.840 71.630L73.840 101.400L56.680 101.400L56.680 74.100Q56.680 70.980 55.055 69.030Q53.430 67.080 49.660 67.080L25.740 67.080L25.740 101.400M25.740 26L25.740 51.480L46.280 51.480Q52.390 51.480 55.835 48.165Q59.280 44.850 59.280 39.390L59.280 38.090Q59.280 32.630 55.900 29.315Q52.520 26 46.280 26" fill="#E8EDE9"/></g><g transform="translate(323.18, 0)"><path d="M25.740 101.400L8.580 101.400L8.580 10.400L46.020 10.400Q54.600 10.400 61.165 13.845Q67.730 17.290 71.435 23.530Q75.140 29.770 75.140 38.350L75.140 40.170Q75.140 48.620 71.305 54.925Q67.470 61.230 60.905 64.675Q54.340 68.120 46.020 68.120L25.740 68.120L25.740 101.400M25.740 26L25.740 52.520L44.330 52.520Q50.440 52.520 54.210 49.140Q57.980 45.760 57.980 39.910L57.980 38.610Q57.980 32.760 54.210 29.380Q50.440 26 44.330 26" fill="#E8EDE9"/></g><g transform="translate(399.36, 0)"><path d="M25.740 101.400L8.580 101.400L8.580 10.400L25.740 10.400" fill="#E8EDE9"/></g><g transform="translate(431.34000000000003, 0)"><path d="M43.680 103.220Q32.500 103.220 24.505 99.125Q16.510 95.030 12.285 87.425Q8.060 79.820 8.060 69.420L8.060 10.400L25.220 10.400L25.220 69.940Q25.220 78.260 29.965 83.070Q34.710 87.880 43.680 87.880Q52.650 87.880 57.395 83.070Q62.140 78.260 62.140 69.940L62.140 10.400L79.300 10.400L79.300 69.420Q79.300 79.820 75.075 87.425Q70.850 95.030 62.855 99.125Q54.860 103.220 43.680 103.220" fill="#E8EDE9"/></g><g transform="translate(516.36, 0)"><path d="M40.170 103.220Q29.640 103.220 21.580 99.450Q13.520 95.680 8.970 88.660Q4.420 81.640 4.420 71.760L4.420 68.120L21.320 68.120L21.320 71.760Q21.320 79.950 26.390 84.045Q31.460 88.140 40.170 88.140Q49.010 88.140 53.365 84.630Q57.720 81.120 57.720 75.660Q57.720 71.890 55.575 69.550Q53.430 67.210 49.335 65.715Q45.240 64.220 39.390 62.920L36.400 62.270Q27.040 60.190 20.345 57.005Q13.650 53.820 10.075 48.620Q6.500 43.420 6.500 35.100Q6.500 26.780 10.465 20.865Q14.430 14.950 21.645 11.765Q28.860 8.580 38.610 8.580Q48.360 8.580 55.965 11.895Q63.570 15.210 67.925 21.775Q72.280 28.340 72.280 38.220L72.280 42.120L55.380 42.120L55.380 38.220Q55.380 33.020 53.365 29.835Q51.350 26.650 47.580 25.155Q43.810 23.660 38.610 23.660Q30.810 23.660 27.105 26.585Q23.400 29.510 23.400 34.580Q23.400 37.960 25.155 40.300Q26.910 42.640 30.420 44.200Q33.930 45.760 39.390 46.930L42.380 47.580Q52.130 49.660 59.345 52.910Q66.560 56.160 70.590 61.490Q74.620 66.820 74.620 75.140Q74.620 83.460 70.395 89.765Q66.170 96.070 58.435 99.645Q50.700 103.220 40.170 103.220" fill="#E8EDE9"/></g><g transform="translate(0, 0)"><path d="M67.340 241.800L8.580 241.800L8.580 150.800L25.740 150.800L25.740 226.200L67.340 226.200" fill="#E8EDE9"/></g><g transform="translate(68.12, 0)"><path d="M67.860 241.800L8.580 241.800L8.580 150.800L67.080 150.800L67.080 166.400L25.740 166.400L25.740 188.110L63.440 188.110L63.440 203.710L25.740 203.710L25.740 226.200L67.860 226.200" fill="#E8EDE9"/></g><g transform="translate(137.8, 0)"><path d="M20.020 241.800L2.340 241.800L26.260 150.800L56.160 150.800L80.080 241.800L62.400 241.800L57.460 221.780L24.960 221.780L20.020 241.800M40.040 161.590L28.990 205.920L53.430 205.920L42.380 161.590" fill="#E8EDE9"/></g><g transform="translate(217.88, 0)"><path d="M43.420 241.800L5.980 241.800L5.980 226.720L17.940 226.720L17.940 165.880L5.980 165.880L5.980 150.800L43.420 150.800Q61.750 150.800 71.305 160.095Q80.860 169.390 80.860 187.720L80.860 204.880Q80.860 223.210 71.305 232.505Q61.750 241.800 43.420 241.800M35.100 166.400L35.100 226.200L43.680 226.200Q54.080 226.200 58.890 220.740Q63.700 215.280 63.700 205.400L63.700 187.200Q63.700 177.190 58.890 171.795Q54.080 166.400 43.680 166.400" fill="#E8EDE9"/></g><g transform="translate(302.12, 0)"><path d="M40.170 243.620Q29.640 243.620 21.580 239.850Q13.520 236.080 8.970 229.060Q4.420 222.040 4.420 212.160L4.420 208.520L21.320 208.520L21.320 212.160Q21.320 220.350 26.390 224.445Q31.460 228.540 40.170 228.540Q49.010 228.540 53.365 225.030Q57.720 221.520 57.720 216.060Q57.720 212.290 55.575 209.950Q53.430 207.610 49.335 206.115Q45.240 204.620 39.390 203.320L36.400 202.670Q27.040 200.590 20.345 197.405Q13.650 194.220 10.075 189.020Q6.500 183.820 6.500 175.500Q6.500 167.180 10.465 161.265Q14.430 155.350 21.645 152.165Q28.860 148.980 38.610 148.980Q48.360 148.980 55.965 152.295Q63.570 155.610 67.925 162.175Q72.280 168.740 72.280 178.620L72.280 182.520L55.380 182.520L55.380 178.620Q55.380 173.420 53.365 170.235Q51.350 167.050 47.580 165.555Q43.810 164.060 38.610 164.060Q30.810 164.060 27.105 166.985Q23.400 169.910 23.400 174.980Q23.400 178.360 25.155 180.700Q26.910 183.040 30.420 184.600Q33.930 186.160 39.390 187.330L42.380 187.980Q52.130 190.060 59.345 193.310Q66.560 196.560 70.590 201.890Q74.620 207.220 74.620 215.540Q74.620 223.860 70.395 230.165Q66.170 236.470 58.435 240.045Q50.700 243.620 40.170 243.620" fill="#E8EDE9"/></g><g transform="translate(381.16, 0)"><path d="M19.500 243.620Q14.170 243.620 10.595 240.175Q7.020 236.730 7.020 231.270Q7.020 225.810 10.595 222.365Q14.170 218.920 19.500 218.920Q24.700 218.920 28.210 222.365Q31.720 225.810 31.720 231.270Q31.720 236.730 28.210 240.175Q24.700 243.620 19.500 243.620" fill="#C8362A"/></g></g>
</svg>
