<svg xmlns="http://www.w3.org/2000/svg" width="696.8" height="696.8" viewBox="0 0 696.8 696.8">
<rect width="100%" height="100%" fill="#082819"/>
<g transform="translate(52, 213.2)"><path d="M40.170 103.220Q29.640 103.220 21.580 99.450Q13.520 95.680 8.970 88.660Q4.420 81.640 4.420 71.760L4.420 68.120L21.320 68.120L21.320 71.760Q21.320 79.950 26.390 84.045Q31.460 88.140 40.170 88.140Q49.010 88.140 53.365 84.630Q57.720 81.120 57.720 75.660Q57.720 71.890 55.575 69.550Q53.430 67.210 49.335 65.715Q45.240 64.220 39.390 62.920L36.400 62.270Q27.040 60.190 20.345 57.005Q13.650 53.820 10.075 48.620Q6.500 43.420 6.500 35.100Q6.500 26.780 10.465 20.865Q14.430 14.950 21.645 11.765Q28.860 8.580 38.610 8.580Q48.360 8.580 55.965 11.895Q63.570 15.210 67.925 21.775Q72.280 28.340 72.280 38.220L72.280 42.120L55.380 42.120L55.380 38.220Q55.380 33.020 53.365 29.835Q51.350 26.650 47.580 25.155Q43.810 23.660 38.610 23.660Q30.810 23.660 27.105 26.585Q23.400 29.510 23.400 34.580Q23.400 37.960 25.155 40.300Q26.910 42.640 30.420 44.200Q33.930 45.760 39.390 46.930L42.380 47.580Q52.130 49.660 59.345 52.910Q66.560 56.160 70.590 61.490Q74.620 66.820 74.620 75.140Q74.620 83.460 70.395 89.765Q66.170 96.070 58.435 99.645Q50.700 103.220 40.170 103.220 M119.600 103.220Q102.700 103.220 92.820 93.795Q82.940 84.370 82.940 66.820L82.940 44.980Q82.940 27.430 92.820 18.005Q102.700 8.580 119.600 8.580Q136.370 8.580 145.535 17.745Q154.700 26.910 154.700 42.900L154.700 43.680L137.800 43.680L137.800 42.380Q137.800 34.320 133.315 29.120Q128.830 23.920 119.600 23.920Q110.500 23.920 105.300 29.510Q100.100 35.100 100.100 44.720L100.100 67.080Q100.100 76.570 105.300 82.225Q110.500 87.880 119.600 87.880Q128.830 87.880 133.315 82.615Q137.800 77.350 137.800 69.420L137.800 67.080L154.700 67.080L154.700 68.900Q154.700 84.890 145.535 94.055Q136.370 103.220 119.600 103.220 M201.760 103.220Q184.600 103.220 174.460 93.795Q164.320 84.370 164.320 66.820L164.320 44.980Q164.320 27.430 174.460 18.005Q184.600 8.580 201.760 8.580Q218.920 8.580 229.060 18.005Q239.200 27.430 239.200 44.980L239.200 66.820Q239.200 84.370 229.060 93.795Q218.920 103.220 201.760 103.220M201.760 87.880Q211.380 87.880 216.710 82.290Q222.040 76.700 222.040 67.340L222.040 44.460Q222.040 35.100 216.710 29.510Q211.380 23.920 201.760 23.920Q192.270 23.920 186.875 29.510Q181.480 35.100 181.480 44.460L181.480 67.340Q181.480 76.700 186.875 82.290Q192.270 87.880 201.760 87.880 M269.100 101.400L251.940 101.400L251.940 10.400L291.460 10.400Q300.040 10.400 306.410 13.390Q312.780 16.380 316.290 21.840Q319.800 27.300 319.800 34.710L319.800 36.270Q319.800 44.460 315.900 49.530Q312 54.600 306.280 56.940L306.280 59.280Q311.480 59.540 314.340 62.855Q317.200 66.170 317.200 71.630L317.200 101.400L300.040 101.400L300.040 74.100Q300.040 70.980 298.415 69.030Q296.790 67.080 293.020 67.080L269.100 67.080L269.100 101.400M269.100 26L269.100 51.480L289.640 51.480Q295.750 51.480 299.195 48.165Q302.640 44.850 302.640 39.390L302.640 38.090Q302.640 32.630 299.260 29.315Q295.880 26 289.640 26 M348.920 101.400L331.760 101.400L331.760 10.400L369.200 10.400Q377.780 10.400 384.345 13.845Q390.910 17.290 394.615 23.530Q398.320 29.770 398.320 38.350L398.320 40.170Q398.320 48.620 394.485 54.925Q390.650 61.230 384.085 64.675Q377.520 68.120 369.200 68.120L348.920 68.120L348.920 101.400M348.920 26L348.920 52.520L367.510 52.520Q373.620 52.520 377.390 49.140Q381.160 45.760 381.160 39.910L381.160 38.610Q381.160 32.760 377.390 29.380Q373.620 26 367.510 26 M425.100 101.400L407.940 101.400L407.940 10.400L425.100 10.400 M475.020 103.220Q463.840 103.220 455.845 99.125Q447.850 95.030 443.625 87.425Q439.400 79.820 439.400 69.420L439.400 10.400L456.560 10.400L456.560 69.940Q456.560 78.260 461.305 83.070Q466.050 87.880 475.020 87.880Q483.990 87.880 488.735 83.070Q493.480 78.260 493.480 69.940L493.480 10.400L510.640 10.400L510.640 69.420Q510.640 79.820 506.415 87.425Q502.190 95.030 494.195 99.125Q486.200 103.220 475.020 103.220 M556.530 103.220Q546 103.220 537.940 99.450Q529.880 95.680 525.330 88.660Q520.780 81.640 520.780 71.760L520.780 68.120L537.680 68.120L537.680 71.760Q537.680 79.950 542.750 84.045Q547.820 88.140 556.530 88.140Q565.370 88.140 569.725 84.630Q574.080 81.120 574.080 75.660Q574.080 71.890 571.935 69.550Q569.790 67.210 565.695 65.715Q561.600 64.220 555.750 62.920L552.760 62.270Q543.400 60.190 536.705 57.005Q530.010 53.820 526.435 48.620Q522.860 43.420 522.860 35.100Q522.860 26.780 526.825 20.865Q530.790 14.950 538.005 11.765Q545.220 8.580 554.970 8.580Q564.720 8.580 572.325 11.895Q579.930 15.210 584.285 21.775Q588.640 28.340 588.640 38.220L588.640 42.120L571.740 42.120L571.740 38.220Q571.740 33.020 569.725 29.835Q567.710 26.650 563.940 25.155Q560.170 23.660 554.970 23.660Q547.170 23.660 543.465 26.585Q539.760 29.510 539.760 34.580Q539.760 37.960 541.515 40.300Q543.270 42.640 546.780 44.200Q550.290 45.760 555.750 46.930L558.740 47.580Q568.490 49.660 575.705 52.910Q582.920 56.160 586.950 61.490Q590.980 66.820 590.980 75.140Q590.980 83.460 586.755 89.765Q582.530 96.070 574.795 99.645Q567.060 103.220 556.530 103.220" fill="#E8EDE9"/><path d="M67.340 241.800L8.580 241.800L8.580 150.800L25.740 150.800L25.740 226.200L67.340 226.200 M135.980 241.800L76.700 241.800L76.700 150.800L135.200 150.800L135.200 166.400L93.860 166.400L93.860 188.110L131.560 188.110L131.560 203.710L93.860 203.710L93.860 226.200L135.980 226.200 M157.820 241.800L140.140 241.800L164.060 150.800L193.960 150.800L217.880 241.800L200.200 241.800L195.260 221.780L162.760 221.780L157.820 241.800M177.840 161.590L166.790 205.920L191.230 205.920L180.180 161.590 M261.300 241.800L223.860 241.800L223.860 226.720L235.820 226.720L235.820 165.880L223.860 165.880L223.860 150.800L261.300 150.800Q279.630 150.800 289.185 160.095Q298.740 169.390 298.740 187.720L298.740 204.880Q298.740 223.210 289.185 232.505Q279.630 241.800 261.300 241.800M252.980 166.400L252.980 226.200L261.560 226.200Q271.960 226.200 276.770 220.740Q281.580 215.280 281.580 205.400L281.580 187.200Q281.580 177.190 276.770 171.795Q271.960 166.400 261.560 166.400 M342.290 243.620Q331.760 243.620 323.700 239.850Q315.640 236.080 311.090 229.060Q306.540 222.040 306.540 212.160L306.540 208.520L323.440 208.520L323.440 212.160Q323.440 220.350 328.510 224.445Q333.580 228.540 342.290 228.540Q351.130 228.540 355.485 225.030Q359.840 221.520 359.840 216.060Q359.840 212.290 357.695 209.950Q355.550 207.610 351.455 206.115Q347.360 204.620 341.510 203.320L338.520 202.670Q329.160 200.590 322.465 197.405Q315.770 194.220 312.195 189.020Q308.620 183.820 308.620 175.500Q308.620 167.180 312.585 161.265Q316.550 155.350 323.765 152.165Q330.980 148.980 340.730 148.980Q350.480 148.980 358.085 152.295Q365.690 155.610 370.045 162.175Q374.400 168.740 374.400 178.620L374.400 182.520L357.500 182.520L357.500 178.620Q357.500 173.420 355.485 170.235Q353.470 167.050 349.700 165.555Q345.930 164.060 340.730 164.060Q332.930 164.060 329.225 166.985Q325.520 169.910 325.520 174.980Q325.520 178.360 327.275 180.700Q329.030 183.040 332.540 184.600Q336.050 186.160 341.510 187.330L344.500 187.980Q354.250 190.060 361.465 193.310Q368.680 196.560 372.710 201.890Q376.740 207.220 376.740 215.540Q376.740 223.860 372.515 230.165Q368.290 236.470 360.555 240.045Q352.820 243.620 342.290 243.620" fill="#E8EDE9"/><path d="M400.660 243.620Q395.330 243.620 391.755 240.175Q388.180 236.730 388.180 231.270Q388.180 225.810 391.755 222.365Q395.330 218.920 400.660 218.920Q405.860 218.920 409.370 222.365Q412.880 225.810 412.880 231.270Q412.880 236.730 409.370 240.175Q405.860 243.620 400.660 243.620" fill="#C8362A"/></g>
</svg>
