<svg xmlns="http://www.w3.org/2000/svg" width="859.8000000000001" height="150" viewBox="0 0 859.8000000000001 150">

<g transform="translate(25, 25)"><path d="M30.900 79.400Q22.800 79.400 16.600 76.500Q10.400 73.600 6.900 68.200Q3.400 62.800 3.400 55.200L3.400 52.400L16.400 52.400L16.400 55.200Q16.400 61.500 20.300 64.650Q24.200 67.800 30.900 67.800Q37.700 67.800 41.050 65.100Q44.400 62.400 44.400 58.200Q44.400 55.300 42.750 53.500Q41.100 51.700 37.950 50.550Q34.800 49.400 30.300 48.400L28 47.900Q20.800 46.300 15.650 43.850Q10.500 41.400 7.750 37.400Q5 33.400 5 27Q5 20.600 8.050 16.050Q11.100 11.500 16.650 9.050Q22.200 6.600 29.700 6.600Q37.200 6.600 43.050 9.150Q48.900 11.700 52.250 16.750Q55.600 21.800 55.600 29.400L55.600 32.400L42.600 32.400L42.600 29.400Q42.600 25.400 41.050 22.950Q39.500 20.500 36.600 19.350Q33.700 18.200 29.700 18.200Q23.700 18.200 20.850 20.450Q18 22.700 18 26.600Q18 29.200 19.350 31Q20.700 32.800 23.400 34Q26.100 35.200 30.300 36.100L32.600 36.600Q40.100 38.200 45.650 40.700Q51.200 43.200 54.300 47.300Q57.400 51.400 57.400 57.800Q57.400 64.200 54.150 69.050Q50.900 73.900 44.950 76.650Q39 79.400 30.900 79.400 M92.600 79.400Q79.600 79.400 72 72.150Q64.400 64.900 64.400 51.400L64.400 34.600Q64.400 21.100 72 13.850Q79.600 6.600 92.600 6.600Q105.500 6.600 112.550 13.650Q119.600 20.700 119.600 33L119.600 33.600L106.600 33.600L106.600 32.600Q106.600 26.400 103.150 22.400Q99.700 18.400 92.600 18.400Q85.600 18.400 81.600 22.700Q77.600 27 77.600 34.400L77.600 51.600Q77.600 58.900 81.600 63.250Q85.600 67.600 92.600 67.600Q99.700 67.600 103.150 63.550Q106.600 59.500 106.600 53.400L106.600 51.600L119.600 51.600L119.600 53Q119.600 65.300 112.550 72.350Q105.500 79.400 92.600 79.400 M156.400 79.400Q143.200 79.400 135.400 72.150Q127.600 64.900 127.600 51.400L127.600 34.600Q127.600 21.100 135.400 13.850Q143.200 6.600 156.400 6.600Q169.600 6.600 177.400 13.850Q185.200 21.100 185.200 34.600L185.200 51.400Q185.200 64.900 177.400 72.150Q169.600 79.400 156.400 79.400M156.400 67.600Q163.800 67.600 167.900 63.300Q172 59 172 51.800L172 34.200Q172 27 167.900 22.700Q163.800 18.400 156.400 18.400Q149.100 18.400 144.950 22.700Q140.800 27 140.800 34.200L140.800 51.800Q140.800 59 144.950 63.300Q149.100 67.600 156.400 67.600 M208.800 78L195.600 78L195.600 8L226 8Q232.600 8 237.500 10.300Q242.400 12.600 245.100 16.800Q247.800 21 247.800 26.700L247.800 27.900Q247.800 34.200 244.800 38.100Q241.800 42 237.400 43.800L237.400 45.600Q241.400 45.800 243.600 48.350Q245.800 50.900 245.800 55.100L245.800 78L232.600 78L232.600 57Q232.600 54.600 231.350 53.100Q230.100 51.600 227.200 51.600L208.800 51.600L208.800 78M208.800 20L208.800 39.600L224.600 39.600Q229.300 39.600 231.950 37.050Q234.600 34.500 234.600 30.300L234.600 29.300Q234.600 25.100 232 22.550Q229.400 20 224.600 20 M270.800 78L257.600 78L257.600 8L286.400 8Q293 8 298.050 10.650Q303.100 13.300 305.950 18.100Q308.800 22.900 308.800 29.500L308.800 30.900Q308.800 37.400 305.850 42.250Q302.900 47.100 297.850 49.750Q292.800 52.400 286.400 52.400L270.800 52.400L270.800 78M270.800 20L270.800 40.400L285.100 40.400Q289.800 40.400 292.700 37.800Q295.600 35.200 295.600 30.700L295.600 29.700Q295.600 25.200 292.700 22.600Q289.800 20 285.100 20 M330 78L316.800 78L316.800 8L330 8 M369 79.400Q360.400 79.400 354.250 76.250Q348.100 73.100 344.850 67.250Q341.600 61.400 341.600 53.400L341.600 8L354.800 8L354.800 53.800Q354.800 60.200 358.450 63.900Q362.100 67.600 369 67.600Q375.900 67.600 379.550 63.900Q383.200 60.200 383.200 53.800L383.200 8L396.400 8L396.400 53.400Q396.400 61.400 393.150 67.250Q389.900 73.100 383.750 76.250Q377.600 79.400 369 79.400 M432.300 79.400Q424.200 79.400 418 76.500Q411.800 73.600 408.300 68.200Q404.800 62.800 404.800 55.200L404.800 52.400L417.800 52.400L417.800 55.200Q417.800 61.500 421.700 64.650Q425.600 67.800 432.300 67.800Q439.100 67.800 442.450 65.100Q445.800 62.400 445.800 58.200Q445.800 55.300 444.150 53.500Q442.500 51.700 439.350 50.550Q436.200 49.400 431.700 48.400L429.400 47.900Q422.200 46.300 417.050 43.850Q411.900 41.400 409.150 37.400Q406.400 33.400 406.400 27Q406.400 20.600 409.450 16.050Q412.500 11.500 418.050 9.050Q423.600 6.600 431.100 6.600Q438.600 6.600 444.450 9.150Q450.300 11.700 453.650 16.750Q457 21.800 457 29.400L457 32.400L444 32.400L444 29.400Q444 25.400 442.450 22.950Q440.900 20.500 438 19.350Q435.100 18.200 431.100 18.200Q425.100 18.200 422.250 20.450Q419.400 22.700 419.400 26.600Q419.400 29.200 420.750 31Q422.100 32.800 424.800 34Q427.500 35.200 431.700 36.100L434 36.600Q441.500 38.200 447.050 40.700Q452.600 43.200 455.700 47.300Q458.800 51.400 458.800 57.800Q458.800 64.200 455.550 69.050Q452.300 73.900 446.350 76.650Q440.400 79.400 432.300 79.400  M536.800 78L491.600 78L491.600 8L504.800 8L504.800 66L536.800 66 M590.200 78L544.600 78L544.600 8L589.600 8L589.600 20L557.800 20L557.800 36.700L586.800 36.700L586.800 48.700L557.800 48.700L557.800 66L590.200 66 M607.600 78L594 78L612.400 8L635.400 8L653.800 78L640.200 78L636.400 62.600L611.400 62.600L607.600 78M623 16.300L614.500 50.400L633.300 50.400L624.800 16.300 M687.800 78LNaN 78LNaN 66.400L668.200 66.400L668.200 19.600LNaN 19.600LNaN 8L687.800 8Q701.900 8 709.250 15.150Q716.600 22.300 716.600 36.400L716.600 49.600Q716.600 63.700 709.250 70.850Q701.900 78 687.800 78M681.400 20L681.400 66LNaN 66QNaN 66 699.700 61.800Q703.400 57.600 703.400 50L703.400 36Q703.400 28.300 699.700 24.150QNaN 20 NaN 20 M750.700 79.400Q742.600 79.400 736.400 76.500Q730.200 73.600 726.700 68.200Q723.200 62.800 723.200 55.200L723.200 52.400L736.200 52.400L736.200 55.200Q736.200 61.500 740.100 64.650QNaN 67.800 750.700 67.800Q757.500 67.800 760.850 65.100Q764.200 62.400 764.200 58.200Q764.200 55.300 762.550 53.500Q760.900 51.700 757.750 50.550Q754.600 49.400 750.100 48.400L747.800 47.900Q740.600 46.300 735.450 43.850Q730.300 41.400 727.550 37.400Q724.800 33.400 724.800 27Q724.800 20.600 727.850 16.050Q730.900 11.500 736.450 9.050QNaN 6.600 749.500 6.600QNaN 6.600 762.850 9.150Q768.700 11.700 772.050 16.750Q775.400 21.800 775.400 29.400L775.400 32.400L762.400 32.400L762.400 29.400Q762.400 25.400 760.850 22.950Q759.300 20.500 756.400 19.350Q753.500 18.200 749.500 18.200Q743.500 18.200 740.650 20.450Q737.800 22.700 737.800 26.600Q737.800 29.200 739.150 31Q740.500 32.800 743.200 34Q745.900 35.200 750.100 36.100L752.400 36.600Q759.900 38.200 765.450 40.700QNaN 43.200 774.100 47.300Q777.200 51.400 777.200 57.800Q777.200 64.200 773.950 69.050Q770.700 73.900 764.750 76.650Q758.800 79.400 750.700 79.400" fill="#0F3D2E"/><path d="M796.200 79.400Q792.100 79.400 789.350 76.750Q786.600 74.100 786.600 69.900Q786.600 65.700 789.350 63.050Q792.100 60.400 796.200 60.400Q800.200 60.400 802.900 63.050Q805.600 65.700 805.600 69.900Q805.600 74.100 802.900 76.750Q800.200 79.400 796.200 79.400" fill="#C8362A"/></g>
</svg>
