<svg xmlns="http://www.w3.org/2000/svg" width="859.8000000000001" height="150" viewBox="0 0 859.8000000000001 150">

<g transform="translate(25, 25)"><g transform="translate(0, 0)"><path d="M30.900 79.400Q22.800 79.400 16.600 76.500Q10.400 73.600 6.900 68.200Q3.400 62.800 3.400 55.200L3.400 52.400L16.400 52.400L16.400 55.200Q16.400 61.500 20.300 64.650Q24.200 67.800 30.900 67.800Q37.700 67.800 41.050 65.100Q44.400 62.400 44.400 58.200Q44.400 55.300 42.750 53.500Q41.100 51.700 37.950 50.550Q34.800 49.400 30.300 48.400L28 47.900Q20.800 46.300 15.650 43.850Q10.500 41.400 7.750 37.400Q5 33.400 5 27Q5 20.600 8.050 16.050Q11.100 11.500 16.650 9.050Q22.200 6.600 29.700 6.600Q37.200 6.600 43.050 9.150Q48.900 11.700 52.250 16.750Q55.600 21.800 55.600 29.400L55.600 32.400L42.600 32.400L42.600 29.400Q42.600 25.400 41.050 22.950Q39.500 20.500 36.600 19.350Q33.700 18.200 29.700 18.200Q23.700 18.200 20.850 20.450Q18 22.700 18 26.600Q18 29.200 19.350 31Q20.700 32.800 23.400 34Q26.100 35.200 30.300 36.100L32.600 36.600Q40.100 38.200 45.650 40.700Q51.200 43.200 54.300 47.300Q57.400 51.400 57.400 57.800Q57.400 64.200 54.150 69.050Q50.900 73.900 44.950 76.650Q39 79.400 30.900 79.400" fill="#0F3D2E"/></g><g transform="translate(59.4, 0)"><path d="M33.200 79.400Q20.200 79.400 12.600 72.150Q5 64.900 5 51.400L5 34.600Q5 21.100 12.600 13.850Q20.200 6.600 33.200 6.600Q46.100 6.600 53.150 13.650Q60.200 20.700 60.200 33L60.200 33.600L47.200 33.600L47.200 32.600Q47.200 26.400 43.750 22.400Q40.300 18.400 33.200 18.400Q26.200 18.400 22.200 22.700Q18.200 27 18.200 34.400L18.200 51.600Q18.200 58.900 22.200 63.250Q26.200 67.600 33.200 67.600Q40.300 67.600 43.750 63.550Q47.200 59.500 47.200 53.400L47.200 51.600L60.200 51.600L60.200 53Q60.200 65.300 53.150 72.350Q46.100 79.400 33.200 79.400" fill="#0F3D2E"/></g><g transform="translate(122.6, 0)"><path d="M33.800 79.400Q20.600 79.400 12.800 72.150Q5 64.900 5 51.400L5 34.600Q5 21.100 12.800 13.850Q20.600 6.600 33.800 6.600Q47 6.600 54.800 13.850Q62.600 21.100 62.600 34.600L62.600 51.400Q62.600 64.900 54.800 72.150Q47 79.400 33.800 79.400M33.800 67.600Q41.200 67.600 45.300 63.300Q49.400 59 49.400 51.800L49.400 34.200Q49.400 27 45.300 22.700Q41.200 18.400 33.800 18.400Q26.500 18.400 22.350 22.700Q18.200 27 18.200 34.200L18.200 51.800Q18.200 59 22.350 63.300Q26.500 67.600 33.800 67.600" fill="#0F3D2E"/></g><g transform="translate(189, 0)"><path d="M19.800 78L6.600 78L6.600 8L37 8Q43.600 8 48.500 10.300Q53.400 12.600 56.100 16.800Q58.800 21 58.800 26.700L58.800 27.900Q58.800 34.200 55.800 38.100Q52.800 42 48.400 43.800L48.400 45.600Q52.400 45.800 54.600 48.350Q56.800 50.900 56.800 55.100L56.800 78L43.600 78L43.600 57Q43.600 54.600 42.350 53.100Q41.100 51.600 38.200 51.600L19.800 51.600L19.800 78M19.800 20L19.800 39.600L35.600 39.600Q40.300 39.600 42.950 37.050Q45.600 34.500 45.600 30.300L45.600 29.300Q45.600 25.100 43 22.550Q40.400 20 35.600 20" fill="#0F3D2E"/></g><g transform="translate(251, 0)"><path d="M19.800 78L6.600 78L6.600 8L35.400 8Q42 8 47.050 10.650Q52.100 13.300 54.950 18.100Q57.800 22.900 57.800 29.500L57.800 30.900Q57.800 37.400 54.850 42.250Q51.900 47.100 46.850 49.750Q41.800 52.400 35.400 52.400L19.800 52.400L19.800 78M19.800 20L19.800 40.400L34.100 40.400Q38.800 40.400 41.700 37.800Q44.600 35.200 44.600 30.700L44.600 29.700Q44.600 25.200 41.700 22.600Q38.800 20 34.100 20" fill="#0F3D2E"/></g><g transform="translate(310.2, 0)"><path d="M19.800 78L6.600 78L6.600 8L19.800 8" fill="#0F3D2E"/></g><g transform="translate(335.4, 0)"><path d="M33.600 79.400Q25 79.400 18.850 76.250Q12.700 73.100 9.450 67.250Q6.200 61.400 6.200 53.400L6.200 8L19.400 8L19.400 53.800Q19.400 60.200 23.050 63.900Q26.700 67.600 33.600 67.600Q40.500 67.600 44.150 63.900Q47.800 60.200 47.800 53.800L47.800 8L61 8L61 53.400Q61 61.400 57.750 67.250Q54.500 73.100 48.350 76.250Q42.200 79.400 33.600 79.400" fill="#0F3D2E"/></g><g transform="translate(401.4, 0)"><path d="M30.900 79.400Q22.800 79.400 16.600 76.500Q10.400 73.600 6.900 68.200Q3.400 62.800 3.400 55.200L3.400 52.400L16.400 52.400L16.400 55.200Q16.400 61.500 20.300 64.650Q24.200 67.800 30.900 67.800Q37.700 67.800 41.050 65.100Q44.400 62.400 44.400 58.200Q44.400 55.300 42.750 53.500Q41.100 51.700 37.950 50.550Q34.800 49.400 30.300 48.400L28 47.900Q20.800 46.300 15.650 43.850Q10.500 41.400 7.750 37.400Q5 33.400 5 27Q5 20.600 8.050 16.050Q11.100 11.500 16.650 9.050Q22.200 6.600 29.700 6.600Q37.200 6.600 43.050 9.150Q48.900 11.700 52.250 16.750Q55.600 21.800 55.600 29.400L55.600 32.400L42.600 32.400L42.600 29.400Q42.600 25.400 41.050 22.950Q39.500 20.500 36.600 19.350Q33.700 18.200 29.700 18.200Q23.700 18.200 20.850 20.450Q18 22.700 18 26.600Q18 29.200 19.350 31Q20.700 32.800 23.400 34Q26.100 35.200 30.300 36.100L32.600 36.600Q40.100 38.200 45.650 40.700Q51.200 43.200 54.300 47.300Q57.400 51.400 57.400 57.800Q57.400 64.200 54.150 69.050Q50.900 73.900 44.950 76.650Q39 79.400 30.900 79.400" fill="#0F3D2E"/></g><g transform="translate(484.99999999999994, 0)"><path d="M51.800 78L6.600 78L6.600 8L19.800 8L19.800 66L51.800 66" fill="#0F3D2E"/></g><g transform="translate(538, 0)"><path d="M52.200 78L6.600 78L6.600 8L51.600 8L51.600 20L19.800 20L19.800 36.700L48.800 36.700L48.800 48.700L19.800 48.700L19.800 66L52.200 66" fill="#0F3D2E"/></g><g transform="translate(592.2, 0)"><path d="M15.400 78L1.800 78L20.200 8L43.200 8L61.600 78L48 78L44.200 62.600L19.200 62.600L15.400 78M30.800 16.300L22.300 50.400L41.100 50.400L32.600 16.300" fill="#0F3D2E"/></g><g transform="translate(654.4000000000001, 0)"><path d="M33.400 78L4.600 78L4.600 66.400L13.800 66.400L13.800 19.600L4.600 19.600L4.600 8L33.400 8Q47.500 8 54.850 15.150Q62.200 22.300 62.200 36.400L62.200 49.600Q62.200 63.700 54.850 70.850Q47.500 78 33.400 78M27 20L27 66L33.600 66Q41.600 66 45.300 61.800Q49 57.600 49 50L49 36Q49 28.300 45.300 24.150Q41.600 20 33.600 20" fill="#0F3D2E"/></g><g transform="translate(719.8000000000001, 0)"><path d="M30.900 79.400Q22.800 79.400 16.600 76.500Q10.400 73.600 6.900 68.200Q3.400 62.800 3.400 55.200L3.400 52.400L16.400 52.400L16.400 55.200Q16.400 61.500 20.300 64.650Q24.200 67.800 30.900 67.800Q37.700 67.800 41.050 65.100Q44.400 62.400 44.400 58.200Q44.400 55.300 42.750 53.500Q41.100 51.700 37.950 50.550Q34.800 49.400 30.300 48.400L28 47.900Q20.800 46.300 15.650 43.850Q10.500 41.400 7.750 37.400Q5 33.400 5 27Q5 20.600 8.050 16.050Q11.100 11.500 16.650 9.050Q22.200 6.600 29.700 6.600Q37.200 6.600 43.050 9.150Q48.900 11.700 52.250 16.750Q55.600 21.800 55.600 29.400L55.600 32.400L42.600 32.400L42.600 29.400Q42.600 25.400 41.050 22.950Q39.500 20.500 36.600 19.350Q33.700 18.200 29.700 18.200Q23.700 18.200 20.850 20.450Q18 22.700 18 26.600Q18 29.200 19.350 31Q20.700 32.800 23.400 34Q26.100 35.200 30.300 36.100L32.600 36.600Q40.100 38.200 45.650 40.700Q51.200 43.200 54.300 47.300Q57.400 51.400 57.400 57.800Q57.400 64.200 54.150 69.050Q50.900 73.900 44.950 76.650Q39 79.400 30.900 79.400" fill="#0F3D2E"/></g><g transform="translate(781.2, 0)"><path d="M15 79.400Q10.900 79.400 8.150 76.750Q5.400 74.100 5.400 69.900Q5.400 65.700 8.150 63.050Q10.900 60.400 15 60.400Q19 60.400 21.700 63.050Q24.400 65.700 24.400 69.900Q24.400 74.100 21.700 76.750Q19 79.400 15 79.400" fill="#C8362A"/></g></g>
</svg>
