<svg xmlns="http://www.w3.org/2000/svg" width="598.14" height="598.14" viewBox="0 0 598.14 598.14">
<rect width="100%" height="100%" fill="#082819"/>
<g transform="translate(48, 175.47)"><path d="M39.660 95.460L39.660 95.460Q34.740 95.460 31.200 94.290Q27.660 93.120 25.410 91.980Q23.160 90.840 22.080 90.840L22.080 90.840Q20.880 90.840 20.100 91.560Q19.320 92.280 18.630 93.210Q17.940 94.140 17.160 94.860Q16.380 95.580 15.240 95.580L15.240 95.580Q13.980 95.580 13.170 94.830Q12.360 94.080 12.060 92.340L12.060 92.340L7.920 72.780Q7.680 71.460 8.250 70.500Q8.820 69.540 10.140 69.120L10.140 69.120Q11.580 68.640 12.660 69.180Q13.740 69.720 14.520 71.280L14.520 71.280Q17.940 78.000 21.810 81.960Q25.680 85.920 29.880 87.600Q34.080 89.280 38.460 89.280L38.460 89.280Q44.580 89.280 48.120 86.100Q51.660 82.920 51.660 77.580L51.660 77.580Q51.720 74.100 50.100 71.310Q48.480 68.520 43.980 65.880Q39.480 63.240 30.660 60.360L30.660 60.360Q21.540 57.420 16.050 53.550Q10.560 49.680 8.100 44.520Q5.640 39.360 5.640 32.520L5.640 32.520Q5.640 25.260 9.090 19.740Q12.540 14.220 18.810 11.130Q25.080 8.040 33.480 8.040L33.480 8.040Q38.880 8.040 42.420 9.150Q45.960 10.260 48.240 11.400Q50.520 12.540 52.020 12.540L52.020 12.540Q53.340 12.540 54.060 11.370Q54.780 10.200 55.620 9.030Q56.460 7.860 58.140 7.860L58.140 7.860Q59.460 7.860 60.330 8.700Q61.200 9.540 61.860 11.820L61.860 11.820L67.500 31.500Q67.980 33.060 67.410 34.290Q66.840 35.520 65.460 35.940L65.460 35.940Q64.080 36.420 62.970 35.850Q61.860 35.280 61.140 33.900L61.140 33.900Q57.420 26.460 53.190 22.170Q48.960 17.880 44.460 16.020Q39.960 14.160 35.340 14.160L35.340 14.160Q29.220 14.160 25.590 17.670Q21.960 21.180 21.960 26.820L21.960 26.820Q21.960 30.240 23.550 33.180Q25.140 36.120 29.580 38.910Q34.020 41.700 42.420 44.820L42.420 44.820Q51.720 48.120 57.210 51.960Q62.700 55.800 65.070 60.630Q67.440 65.460 67.440 71.700L67.440 71.700Q67.440 78.240 64.140 83.640Q60.840 89.040 54.660 92.250Q48.480 95.460 39.660 95.460Z M130.560 51.900L130.560 51.900Q130.560 55.320 128.190 57.660Q125.820 60.000 121.860 60.000L121.860 60.000Q117.960 60.000 115.950 57.870Q113.940 55.740 113.940 52.260L113.940 52.260L113.940 50.340Q113.940 46.260 111.420 43.770Q108.900 41.280 104.640 41.280L104.640 41.280Q100.860 41.280 97.860 43.560Q94.860 45.840 93.120 50.100Q91.380 54.360 91.380 60.300L91.380 60.300Q91.380 67.800 93.930 72.990Q96.480 78.180 100.980 80.850Q105.480 83.520 111.240 83.520L111.240 83.520Q116.340 83.520 120.150 81.420Q123.960 79.320 126.180 75.540L126.180 75.540Q127.200 74.340 127.860 73.920Q128.520 73.500 129.180 73.500L129.180 73.500Q130.140 73.500 130.560 74.370Q130.980 75.240 130.920 76.380L130.920 76.380Q130.680 81.480 127.380 85.740Q124.080 90.000 118.530 92.550Q112.980 95.100 105.780 95.100L105.780 95.100Q97.080 95.100 90.390 91.530Q83.700 87.960 79.890 81.540Q76.080 75.120 76.080 66.420L76.080 66.420Q76.080 57.600 79.890 50.580Q83.700 43.560 90.600 39.480Q97.500 35.400 106.860 35.400L106.860 35.400Q114.180 35.400 119.490 37.650Q124.800 39.900 127.680 43.650Q130.560 47.400 130.560 51.900Z M169.440 35.400L169.440 35.400Q178.740 35.400 185.760 39.180Q192.780 42.960 196.710 49.710Q200.640 56.460 200.640 65.400L200.640 65.400Q200.640 73.860 196.590 80.580Q192.540 87.300 185.400 91.200Q178.260 95.100 168.840 95.100L168.840 95.100Q159.600 95.100 152.610 91.260Q145.620 87.420 141.660 80.670Q137.700 73.920 137.700 65.100L137.700 65.100Q137.700 56.520 141.750 49.830Q145.800 43.140 152.940 39.270Q160.080 35.400 169.440 35.400ZM173.700 88.800L173.700 88.800Q177.780 88.200 180.270 85.050Q182.760 81.900 183.450 76.380Q184.140 70.860 182.700 63.120L182.700 63.120Q181.320 55.380 178.680 50.370Q176.040 45.360 172.440 43.140Q168.840 40.920 164.640 41.640L164.640 41.640Q160.500 42.300 158.010 45.450Q155.520 48.600 154.890 54.090Q154.260 59.580 155.640 67.380L155.640 67.380Q157.020 75.060 159.660 80.070Q162.300 85.080 165.900 87.300Q169.500 89.520 173.700 88.800Z M231.960 61.500L229.860 61.800Q229.860 53.100 232.320 47.220Q234.780 41.340 238.800 38.370Q242.820 35.400 247.440 35.400L247.440 35.400Q253.140 35.400 256.260 38.640Q259.380 41.880 259.380 47.940L259.380 47.940Q259.380 53.340 257.160 55.980Q254.940 58.620 251.400 58.620L251.400 58.620Q247.800 58.620 245.940 56.700Q244.080 54.780 244.080 51.360L244.080 51.360L244.080 49.200Q244.020 47.280 243.180 46.350Q242.340 45.420 240.420 45.420L240.420 45.420Q238.320 45.420 236.370 47.160Q234.420 48.900 233.190 52.440Q231.960 55.980 231.960 61.500L231.960 61.500ZM231 39.540L231 39.540L231.960 53.160L231.960 83.940Q231.960 85.680 232.650 86.490Q233.340 87.300 235.140 87.600L235.140 87.600L240.300 88.380Q241.680 88.620 242.370 89.280Q243.060 89.940 243.060 91.080L243.060 91.080Q243.060 92.280 242.190 92.940Q241.320 93.600 239.700 93.600L239.700 93.600L211.680 93.600Q210 93.600 209.220 92.940Q208.440 92.280 208.440 91.140L208.440 91.140Q208.440 90.240 208.980 89.610Q209.520 88.980 210.660 88.560L210.660 88.560L213 87.960Q214.080 87.600 214.590 86.730Q215.100 85.860 215.100 84.000L215.100 84.000L215.100 49.740Q215.100 48.180 214.650 47.520Q214.200 46.860 213.180 46.680L213.180 46.680L210 46.440Q208.920 46.200 208.440 45.660Q207.960 45.120 207.960 44.280L207.960 44.280Q207.960 43.260 208.560 42.660Q209.160 42.060 210.720 41.460L210.720 41.460L221.640 37.500Q224.580 36.360 225.960 36.030Q227.340 35.700 228.120 35.700L228.120 35.700Q229.440 35.700 230.100 36.570Q230.760 37.440 231 39.540Z M286.800 39.480L286.800 39.480L286.800 46.200L287.520 47.640L287.520 111.960Q287.520 113.820 288.030 114.690Q288.540 115.560 289.620 115.860L289.620 115.860L292.800 116.520Q294.000 116.880 294.540 117.510Q295.080 118.140 295.080 119.100L295.080 119.100Q295.080 120.240 294.270 120.900Q293.460 121.560 291.720 121.560L291.720 121.560L267.180 121.560Q265.500 121.560 264.720 120.900Q263.940 120.240 263.940 119.100L263.940 119.100Q263.940 118.200 264.480 117.570Q265.020 116.940 266.160 116.520L266.160 116.520L268.500 115.920Q269.580 115.560 270.090 114.690Q270.600 113.820 270.600 111.960L270.600 111.960L270.600 49.560Q270.600 48.060 270.150 47.400Q269.700 46.740 268.680 46.560L268.680 46.560L265.500 46.320Q264.420 46.080 263.940 45.540Q263.460 45.000 263.460 44.160L263.460 44.160Q263.460 43.140 264.030 42.600Q264.600 42.060 266.220 41.400L266.220 41.400L276.720 37.260Q278.880 36.360 280.290 36.030Q281.700 35.700 282.780 35.700L282.780 35.700Q284.820 35.700 285.810 36.750Q286.800 37.800 286.800 39.480ZM284.040 54.540L284.040 54.540L281.400 51.120Q286.140 43.680 292.320 39.540Q298.500 35.400 306.060 35.400L306.060 35.400Q313.140 35.400 318.720 39.000Q324.300 42.600 327.510 48.990Q330.720 55.380 330.720 63.720L330.720 63.720Q330.720 73.260 326.910 80.310Q323.100 87.360 316.560 91.230Q310.020 95.100 301.920 95.100L301.920 95.100Q294.780 95.100 289.260 91.740Q283.740 88.380 280.140 82.020L280.140 82.020L284.280 78.540Q287.220 83.460 290.910 85.860Q294.600 88.260 298.860 88.260L298.860 88.260Q303.000 88.260 306.210 85.860Q309.420 83.460 311.280 78.390Q313.140 73.320 313.140 65.520L313.140 65.520Q313.140 58.200 311.340 53.400Q309.540 48.600 306.390 46.230Q303.240 43.860 299.220 43.860L299.220 43.860Q294.900 43.860 291.090 46.470Q287.280 49.080 284.040 54.540Z M362.040 39.480L362.040 39.480L362.040 84.000Q362.040 85.860 362.550 86.730Q363.060 87.600 364.140 87.960L364.140 87.960L366.420 88.560Q367.560 88.920 368.100 89.550Q368.640 90.180 368.640 91.140L368.640 91.140Q368.640 92.280 367.860 92.940Q367.080 93.600 365.340 93.600L365.340 93.600L341.700 93.600Q340.020 93.600 339.240 92.940Q338.460 92.280 338.460 91.140L338.460 91.140Q338.460 90.240 339.000 89.610Q339.540 88.980 340.680 88.560L340.680 88.560L343.020 87.960Q344.100 87.540 344.610 86.700Q345.120 85.860 345.120 84.000L345.120 84.000L345.120 49.620Q345.120 48.060 344.670 47.400Q344.220 46.740 343.200 46.560L343.200 46.560L340.020 46.320Q338.940 46.080 338.460 45.540Q337.980 45.000 337.980 44.160L337.980 44.160Q337.980 43.140 338.550 42.540Q339.120 41.940 340.740 41.340L340.740 41.340L351.900 37.260Q354.240 36.420 355.650 36.060Q357.060 35.700 358.020 35.700L358.020 35.700Q360.060 35.700 361.050 36.750Q362.040 37.800 362.040 39.480ZM352.260 26.520L352.260 26.520Q347.460 26.520 344.550 24.030Q341.640 21.540 341.640 17.520L341.640 17.520Q341.640 13.500 344.550 11.070Q347.460 8.640 352.260 8.640L352.260 8.640Q357.120 8.640 360.030 11.070Q362.940 13.500 362.940 17.520L362.940 17.520Q362.940 21.540 360.030 24.030Q357.120 26.520 352.260 26.520Z M418.800 84.960L418.800 84.960L418.800 82.020L418.260 81.780L418.260 49.620Q418.260 48.120 417.810 47.430Q417.360 46.740 416.340 46.560L416.340 46.560L413.160 46.320Q412.080 46.080 411.600 45.540Q411.120 45.000 411.120 44.160L411.120 44.160Q411.120 43.200 411.690 42.570Q412.260 41.940 413.880 41.400L413.880 41.400L425.040 37.320Q427.320 36.480 428.730 36.090Q430.140 35.700 431.340 35.700L431.340 35.700Q433.200 35.700 434.190 36.750Q435.180 37.800 435.180 39.540L435.180 39.540L435.180 84.000Q435.180 85.860 435.690 86.730Q436.200 87.600 437.280 87.960L437.280 87.960L439.560 88.560Q440.700 88.920 441.240 89.550Q441.780 90.180 441.780 91.140L441.780 91.140Q441.780 92.280 441.000 92.940Q440.220 93.600 438.480 93.600L438.480 93.600L426.420 93.600Q423.180 93.600 420.990 91.170Q418.800 88.740 418.800 84.960ZM380.460 76.920L380.460 76.920L380.460 49.620Q380.460 48.120 379.980 47.430Q379.500 46.740 378.480 46.560L378.480 46.560L375.300 46.320Q374.220 46.080 373.740 45.540Q373.260 45.000 373.260 44.160L373.260 44.160Q373.260 43.200 373.860 42.570Q374.460 41.940 376.020 41.400L376.020 41.400L387.240 37.320Q389.580 36.420 390.960 36.060Q392.340 35.700 393.360 35.700L393.360 35.700Q395.340 35.700 396.330 36.750Q397.320 37.800 397.320 39.540L397.320 39.540L397.320 74.460Q397.320 79.740 399.840 82.350Q402.360 84.960 406.680 84.960L406.680 84.960Q409.320 84.960 412.320 83.670Q415.320 82.380 418.500 79.680L418.500 79.680L420.900 77.580L423.660 80.400L421.320 82.500Q413.760 89.460 408.120 92.280Q402.480 95.100 397.500 95.100L397.500 95.100Q389.820 95.100 385.140 90.150Q380.460 85.200 380.460 76.920Z M475.320 89.640L475.320 89.640Q479.460 89.640 481.710 87.570Q483.960 85.500 483.960 82.380L483.960 82.380Q483.960 80.400 483.090 78.780Q482.220 77.160 479.730 75.840Q477.240 74.520 472.500 73.380L472.500 73.380Q463.260 71.520 458.190 68.640Q453.120 65.760 451.170 61.950Q449.220 58.140 449.220 53.580L449.220 53.580Q449.220 45.240 455.130 40.320Q461.040 35.400 472.200 35.400L472.200 35.400Q476.220 35.400 478.770 36.060Q481.320 36.720 482.940 37.410Q484.560 38.100 485.820 38.100L485.820 38.100Q487.140 38.100 487.830 37.410Q488.520 36.720 489.210 36.060Q489.900 35.400 491.160 35.400L491.160 35.400Q492.060 35.400 492.780 35.970Q493.500 36.540 493.980 38.160L493.980 38.160L497.940 50.220Q498.660 52.320 498.390 53.640Q498.120 54.960 496.740 55.500L496.740 55.500Q495.360 56.040 494.370 55.530Q493.380 55.020 492.420 53.640L492.420 53.640Q489.780 48.900 486.690 46.110Q483.600 43.320 480.210 42.090Q476.820 40.860 473.160 40.860L473.160 40.860Q468.060 40.860 465.480 42.930Q462.900 45.000 462.900 48.540L462.900 48.540Q462.900 50.640 463.980 52.320Q465.060 54.000 468.030 55.410Q471 56.820 476.520 58.140L476.520 58.140Q484.380 59.820 488.940 62.490Q493.500 65.160 495.510 68.910Q497.520 72.660 497.520 77.700L497.520 77.700Q497.520 82.860 494.850 86.790Q492.180 90.720 487.410 92.910Q482.640 95.100 476.400 95.100L476.400 95.100Q472.440 95.100 470.070 94.320Q467.700 93.540 466.170 92.790Q464.640 92.040 463.200 92.040L463.200 92.040Q461.880 92.040 461.010 92.790Q460.140 93.540 459.360 94.320Q458.580 95.100 457.440 95.100L457.440 95.100Q456.540 95.100 455.910 94.440Q455.280 93.780 454.980 92.220L454.980 92.220L452.640 80.760Q452.220 78.360 452.490 77.190Q452.760 76.020 454.020 75.540L454.020 75.540Q455.340 75.000 456.360 75.630Q457.380 76.260 458.400 77.940L458.400 77.940Q462.120 84.240 466.470 86.940Q470.820 89.640 475.320 89.640Z" fill="#E8EDE9"/><path d="M40.140 142.620L40.140 142.620L36.720 143.400Q35.280 143.820 34.500 144.660Q33.720 145.500 33.720 146.820L33.720 146.820L33.720 210.540Q33.720 212.820 35.040 213.810Q36.360 214.800 39.060 214.800L39.060 214.800L49.020 214.800Q52.440 214.800 54.840 213.870Q57.240 212.940 59.160 210.600Q61.080 208.260 63.060 203.940L63.060 203.940L66.660 195.660Q67.380 194.160 68.430 193.650Q69.480 193.140 70.860 193.500L70.860 193.500Q72.300 193.860 72.900 194.850Q73.500 195.840 73.020 197.520L73.020 197.520L67.620 218.640Q66.960 220.860 65.970 221.940Q64.980 223.020 63.060 223.020L63.060 223.020Q61.800 223.020 60.570 222.480Q59.340 221.940 57.870 221.370Q56.400 220.800 54.180 220.800L54.180 220.800L9.840 220.800Q7.980 220.800 7.110 220.050Q6.240 219.300 6.240 218.040L6.240 218.040Q6.240 215.760 8.760 214.980L8.760 214.980L12.180 214.200Q13.620 213.780 14.400 212.940Q15.180 212.100 15.180 210.780L15.180 210.780L15.180 146.820Q15.180 145.500 14.400 144.660Q13.620 143.820 12.180 143.400L12.180 143.400L8.760 142.620Q6.240 141.840 6.240 139.560L6.240 139.560Q6.240 138.240 7.110 137.520Q7.980 136.800 9.840 136.800L9.840 136.800L39.060 136.800Q40.920 136.800 41.790 137.520Q42.660 138.240 42.660 139.560L42.660 139.560Q42.660 141.840 40.140 142.620Z M134.340 185.340L134.340 185.340Q134.340 188.520 132.540 190.230Q130.740 191.940 127.260 191.940L127.260 191.940L89.820 191.940L89.820 187.380L114.360 187.380Q117.420 187.380 117.420 184.620L117.420 184.620Q117.420 176.700 114.540 172.590Q111.660 168.480 106.800 168.480L106.800 168.480Q103.080 168.480 100.200 170.760Q97.320 173.040 95.700 177.270Q94.080 181.500 94.080 187.500L94.080 187.500Q94.080 199.080 99.510 204.900Q104.940 210.720 114 210.720L114 210.720Q119.280 210.720 123.270 208.620Q127.260 206.520 129.480 202.620L129.480 202.620Q130.560 201.420 131.190 201Q131.820 200.580 132.480 200.580L132.480 200.580Q133.440 200.580 133.860 201.450Q134.280 202.320 134.280 203.520L134.280 203.520Q134.040 208.560 130.680 212.850Q127.320 217.140 121.620 219.720Q115.920 222.300 108.540 222.300L108.540 222.300Q99.840 222.300 93.120 218.730Q86.400 215.160 82.590 208.710Q78.780 202.260 78.780 193.620L78.780 193.620Q78.780 184.560 82.410 177.540Q86.040 170.520 92.820 166.560Q99.600 162.600 109.020 162.600L109.020 162.600Q117.060 162.600 122.730 165.510Q128.400 168.420 131.370 173.550Q134.340 178.680 134.340 185.340Z M178.440 213.180L178.440 213.180L178.440 211.920L177.300 211.680L177.300 175.860Q177.300 171.660 175.170 169.350Q173.040 167.040 169.140 167.040L169.140 167.040Q165.600 167.040 163.680 168.540Q161.760 170.040 161.760 172.260L161.760 172.260L161.760 177.540Q161.760 181.140 159.360 183.090Q156.960 185.040 152.580 185.040L152.580 185.040Q148.860 185.040 146.940 183.270Q145.020 181.500 145.020 178.440L145.020 178.440Q145.020 174.660 148.140 171.030Q151.260 167.400 157.320 165.030Q163.380 162.660 172.260 162.660L172.260 162.660Q183.300 162.660 188.670 167.130Q194.040 171.600 194.040 179.220L194.040 179.220L194.040 210.420Q194.040 212.100 194.730 212.940Q195.420 213.780 196.680 213.780L196.680 213.780Q198 213.780 198.660 213.150Q199.320 212.520 199.800 211.860L199.800 211.860Q200.100 211.440 200.460 211.170Q200.820 210.900 201.360 210.900L201.360 210.900Q202.080 210.900 202.440 211.440Q202.800 211.980 202.800 212.880L202.800 212.880Q202.800 214.920 201.390 217.080Q199.980 219.240 197.190 220.770Q194.400 222.300 190.200 222.300L190.200 222.300Q184.860 222.300 181.650 219.870Q178.440 217.440 178.440 213.180ZM142.500 208.260L142.500 208.260Q142.500 200.760 149.190 196.140Q155.880 191.520 167.880 191.520L167.880 191.520Q171.780 191.520 174.930 192.180Q178.080 192.840 180.360 193.980L180.360 193.980L179.040 197.820Q177 196.860 174.870 196.320Q172.740 195.780 170.280 195.780L170.280 195.780Q165.300 195.780 162.510 198.330Q159.720 200.880 159.720 205.380L159.720 205.380Q159.720 209.880 162.090 212.280Q164.460 214.680 168.240 214.680L168.240 214.680Q171.480 214.680 174.450 213.210Q177.420 211.740 179.460 209.100L179.460 209.100L180.780 212.520Q177.480 217.200 171.930 219.750Q166.380 222.300 160.140 222.300L160.140 222.300Q152.280 222.300 147.390 218.400Q142.500 214.500 142.500 208.260Z M251.400 213.540L251.400 210.780L250.860 210.480L250.860 145.500Q250.860 144 250.410 143.340Q249.960 142.680 248.880 142.500L248.880 142.500L245.760 142.260Q244.680 141.960 244.200 141.420Q243.720 140.880 243.720 140.040L243.720 140.040Q243.720 139.080 244.290 138.480Q244.860 137.880 246.480 137.280L246.480 137.280L257.640 133.200Q259.920 132.360 261.300 131.970Q262.680 131.580 263.940 131.580L263.940 131.580Q265.800 131.580 266.760 132.630Q267.720 133.680 267.720 135.420L267.720 135.420L267.720 211.200Q267.720 213.060 268.260 213.930Q268.800 214.800 269.880 215.160L269.880 215.160L272.160 215.760Q273.300 216.120 273.840 216.750Q274.380 217.380 274.380 218.340L274.380 218.340Q274.380 219.480 273.570 220.140Q272.760 220.800 271.080 220.800L271.080 220.800L258.660 220.800Q255.540 220.800 253.470 218.790Q251.400 216.780 251.400 213.540L251.400 213.540ZM207.660 193.980L207.660 193.980Q207.660 184.380 211.470 177.330Q215.280 170.280 221.820 166.440Q228.360 162.600 236.460 162.600L236.460 162.600Q243.600 162.600 249.120 165.930Q254.640 169.260 258.240 175.680L258.240 175.680L254.100 179.100Q251.160 174.180 247.470 171.780Q243.780 169.380 239.520 169.380L239.520 169.380Q235.440 169.380 232.200 171.810Q228.960 174.240 227.100 179.250Q225.240 184.260 225.240 192.120L225.240 192.120Q225.240 199.440 227.040 204.240Q228.840 209.040 231.990 211.410Q235.140 213.780 239.160 213.780L239.160 213.780Q243.540 213.780 247.320 211.170Q251.100 208.560 254.280 203.160L254.280 203.160L256.980 206.580Q252.240 213.960 246.030 218.130Q239.820 222.300 232.320 222.300L232.320 222.300Q225.240 222.300 219.660 218.670Q214.080 215.040 210.870 208.650Q207.660 202.260 207.660 193.980Z M307.380 216.840L307.380 216.840Q311.520 216.840 313.770 214.770Q316.020 212.700 316.020 209.580L316.020 209.580Q316.020 207.600 315.150 205.980Q314.280 204.360 311.790 203.040Q309.300 201.720 304.560 200.580L304.560 200.580Q295.320 198.720 290.250 195.840Q285.180 192.960 283.230 189.150Q281.280 185.340 281.280 180.780L281.280 180.780Q281.280 172.440 287.190 167.520Q293.100 162.600 304.260 162.600L304.260 162.600Q308.280 162.600 310.830 163.260Q313.380 163.920 315 164.610Q316.620 165.300 317.880 165.300L317.880 165.300Q319.200 165.300 319.890 164.610Q320.580 163.920 321.270 163.260Q321.960 162.600 323.220 162.600L323.220 162.600Q324.120 162.600 324.840 163.170Q325.560 163.740 326.040 165.360L326.040 165.360L330 177.420Q330.720 179.520 330.450 180.840Q330.180 182.160 328.800 182.700L328.800 182.700Q327.420 183.240 326.430 182.730Q325.440 182.220 324.480 180.840L324.480 180.840Q321.840 176.100 318.750 173.310Q315.660 170.520 312.270 169.290Q308.880 168.060 305.220 168.060L305.220 168.060Q300.120 168.060 297.540 170.130Q294.960 172.200 294.960 175.740L294.960 175.740Q294.960 177.840 296.040 179.520Q297.120 181.200 300.090 182.610Q303.060 184.020 308.580 185.340L308.580 185.340Q316.440 187.020 321 189.690Q325.560 192.360 327.570 196.110Q329.580 199.860 329.580 204.900L329.580 204.900Q329.580 210.060 326.910 213.990Q324.240 217.920 319.470 220.110Q314.700 222.300 308.460 222.300L308.460 222.300Q304.500 222.300 302.130 221.520Q299.760 220.740 298.230 219.990Q296.700 219.240 295.260 219.240L295.260 219.240Q293.940 219.240 293.070 219.990Q292.200 220.740 291.420 221.520Q290.640 222.300 289.500 222.300L289.500 222.300Q288.600 222.300 287.970 221.640Q287.340 220.980 287.040 219.420L287.040 219.420L284.700 207.960Q284.280 205.560 284.550 204.390Q284.820 203.220 286.080 202.740L286.080 202.740Q287.400 202.200 288.420 202.830Q289.440 203.460 290.460 205.140L290.460 205.140Q294.180 211.440 298.530 214.140Q302.880 216.840 307.380 216.840Z" fill="#E8EDE9"/><path d="M350.400 222.120L350.400 222.120Q347.460 222.120 345.030 220.620Q342.600 219.120 341.190 216.630Q339.780 214.140 339.780 211.260L339.780 211.260Q339.780 208.260 341.190 205.800Q342.600 203.340 345.030 201.870Q347.460 200.400 350.400 200.400L350.400 200.400Q353.460 200.400 355.860 201.870Q358.260 203.340 359.670 205.800Q361.080 208.260 361.080 211.260L361.080 211.260Q361.080 214.140 359.670 216.630Q358.260 219.120 355.860 220.620Q353.460 222.120 350.400 222.120Z" fill="#C8362A"/></g>
</svg>
